<?xml version="1.0" encoding="UTF-8" standalone="no"?>
<!-- Generator: Adobe Illustrator 15.1.0, SVG Export Plug-In . SVG Version: 6.00 Build 0)  -->

<svg
   xmlns:dc="http://purl.org/dc/elements/1.1/"
   xmlns:cc="http://creativecommons.org/ns#"
   xmlns:rdf="http://www.w3.org/1999/02/22-rdf-syntax-ns#"
   xmlns:svg="http://www.w3.org/2000/svg"
   xmlns="http://www.w3.org/2000/svg"
   xmlns:sodipodi="http://sodipodi.sourceforge.net/DTD/sodipodi-0.dtd"
   xmlns:inkscape="http://www.inkscape.org/namespaces/inkscape"
   version="1.1"
   id="Livello_1"
   x="0px"
   y="0px"
   width="980px"
   height="800px"
   viewBox="0 0 980 800"
   enable-background="new 0 0 980 800"
   xml:space="preserve"
   inkscape:version="0.48.4 r9939"
   sodipodi:docname="logo arpa colori.svg"><metadata
   id="metadata163"><rdf:RDF><cc:Work
       rdf:about=""><dc:format>image/svg+xml</dc:format><dc:type
         rdf:resource="http://purl.org/dc/dcmitype/StillImage" /><dc:title></dc:title></cc:Work></rdf:RDF></metadata><defs
   id="defs161" /><sodipodi:namedview
   pagecolor="#ffffff"
   bordercolor="#666666"
   borderopacity="1"
   objecttolerance="10"
   gridtolerance="10"
   guidetolerance="10"
   inkscape:pageopacity="0"
   inkscape:pageshadow="2"
   inkscape:window-width="1440"
   inkscape:window-height="833"
   id="namedview159"
   showgrid="false"
   inkscape:zoom="0.295"
   inkscape:cx="490"
   inkscape:cy="400"
   inkscape:window-x="-8"
   inkscape:window-y="-8"
   inkscape:window-maximized="1"
   inkscape:current-layer="Livello_1" />
<g
   id="g3"
   inkscape:export-xdpi="90"
   inkscape:export-ydpi="90"
   transform="matrix(1.9349148,0,0,1.9349148,-455.82294,-373.60468)">
	<path
   clip-rule="evenodd"
   d="m 365.307,514.898 h 4.65 v -5.879 c 0.374,0.416 1.443,1.246 3.18,1.246 4.035,0 6.788,-3.234 6.788,-8.549 0,-4.365 -2.913,-7.541 -6.307,-7.541 -2.004,0 -3.126,1.127 -3.608,1.959 h -0.053 v -1.604 h -4.65 v 20.368 l 0,0 z m 9.968,-12.677 c 0,1.604 -1.149,2.881 -2.619,2.881 -1.443,0 -2.592,-1.277 -2.592,-2.881 0,-1.604 1.149,-2.879 2.592,-2.879 1.47,0 2.619,1.275 2.619,2.879 l 0,0 z"
   id="path5"
   inkscape:connector-curvature="0"
   style="fill:#009856;fill-rule:evenodd" />
	<path
   clip-rule="evenodd"
   d="m 394.471,503.318 c -0.882,1.039 -2.752,2.197 -4.33,2.197 -0.668,0 -1.362,-0.236 -1.603,-0.414 l 6.975,-5.494 c -0.535,-1.898 -1.604,-5.432 -6.147,-5.432 -3.18,0 -7.242,2.553 -7.242,8.074 0,6.383 4.597,8.016 6.868,8.016 2.939,0 4.944,-1.336 5.799,-1.898 l -0.32,-5.049 0,0 z m -7.804,-1.007 c -0.053,-0.297 -0.107,-0.564 -0.107,-0.832 0,-1.84 1.069,-2.85 2.352,-2.85 0.374,0 1.229,0.119 1.523,0.533 l -3.768,3.149 0,0 z"
   id="path7"
   inkscape:connector-curvature="0"
   style="fill:#009856;fill-rule:evenodd" />
	<path
   d="m 397.901,509.91 h 4.65 v -7.451 c 0,-1.752 0.455,-2.762 3.047,-2.762 v -5.166 c -1.63,0 -2.405,0.355 -2.993,1.543 h -0.054 v -1.543 h -4.65 v 15.379 l 0,0 z"
   id="path9"
   inkscape:connector-curvature="0"
   style="fill:#009856" />
	<polygon
   points="416.75,509.91 416.75,509.91 421.399,509.91 421.399,488.533 416.75,488.533 "
   id="polygon11"
   style="fill:#009856" />
	<path
   clip-rule="evenodd"
   d="m 425.362,498.391 c 0.855,-0.148 1.523,-0.355 2.966,-0.355 2.058,0 2.512,0.475 2.512,2.018 -0.428,-0.236 -1.203,-0.414 -2.031,-0.414 -3.1,0 -4.784,2.582 -4.784,5.225 0,3.473 2.004,5.402 4.303,5.402 1.871,0 2.833,-1.156 2.993,-1.484 h 0.054 v 1.129 h 4.008 v -10.539 c 0,-4.098 -2.004,-4.84 -5.665,-4.84 -1.256,0 -2.539,0.119 -3.795,0.207 l -0.561,3.651 0,0 z m 4.516,4.572 c 0.775,0 1.417,0.713 1.417,1.574 0,0.861 -0.642,1.572 -1.417,1.572 -0.775,0 -1.417,-0.711 -1.417,-1.572 0,-0.861 0.643,-1.574 1.417,-1.574 l 0,0 z"
   id="path13"
   inkscape:connector-curvature="0"
   style="fill:#009856;fill-rule:evenodd" />
	<path
   clip-rule="evenodd"
   d="m 447.479,509.91 h 5.024 v -5.641 c 4.837,0.088 8.285,-2.02 8.285,-7.809 0,-4.928 -2.245,-7.928 -6.681,-7.928 h -6.628 v 21.378 l 0,0 z m 5.024,-16.328 h 0.962 c 1.71,0 2.298,1.275 2.298,2.641 0,1.367 -0.588,2.643 -2.298,2.643 h -0.962 v -5.284 l 0,0 z"
   id="path15"
   inkscape:connector-curvature="0"
   style="fill:#009856;fill-rule:evenodd" />
	<path
   d="m 463.701,509.91 h 4.65 v -7.451 c 0,-1.752 0.454,-2.762 3.046,-2.762 v -5.166 c -1.63,0 -2.405,0.355 -2.993,1.543 h -0.053 v -1.543 h -4.65 v 15.379 l 0,0 z"
   id="path17"
   inkscape:connector-curvature="0"
   style="fill:#009856" />
	<path
   clip-rule="evenodd"
   d="m 473.535,502.221 c 0,4.453 3.234,8.045 7.242,8.045 4.009,0 7.242,-3.592 7.242,-8.045 0,-4.453 -3.233,-8.045 -7.242,-8.045 -4.008,0 -7.242,3.592 -7.242,8.045 l 0,0 z m 4.65,0 c 0,-1.604 1.149,-2.879 2.592,-2.879 1.443,0 2.592,1.275 2.592,2.879 0,1.604 -1.149,2.881 -2.592,2.881 -1.443,0 -2.592,-1.278 -2.592,-2.881 l 0,0 z"
   id="path19"
   inkscape:connector-curvature="0"
   style="fill:#009856;fill-rule:evenodd" />
	<path
   d="m 491.227,494.531 h -0.962 v 4.453 h 0.962 v 7.037 c 0,3.889 2.085,3.889 6.014,3.889 l 0.694,-5.285 c -0.16,0.061 -0.294,0.119 -0.694,0.119 -1.363,0 -1.363,-0.801 -1.363,-1.543 v -4.217 h 1.711 v -4.453 h -1.711 v -4.869 l -4.65,2.969 v 1.9 l -0.001,0 z"
   id="path21"
   inkscape:connector-curvature="0"
   style="fill:#009856" />
	<path
   clip-rule="evenodd"
   d="m 512.468,503.318 c -0.883,1.039 -2.753,2.197 -4.33,2.197 -0.668,0 -1.362,-0.236 -1.604,-0.414 l 6.976,-5.494 c -0.535,-1.898 -1.604,-5.432 -6.147,-5.432 -3.18,0 -7.242,2.553 -7.242,8.074 0,6.383 4.597,8.016 6.868,8.016 2.939,0 4.944,-1.336 5.8,-1.898 l -0.321,-5.049 0,0 z m -7.804,-1.007 c -0.054,-0.297 -0.107,-0.564 -0.107,-0.832 0,-1.84 1.069,-2.85 2.352,-2.85 0.375,0 1.229,0.119 1.523,0.533 l -3.768,3.149 0,0 z"
   id="path23"
   inkscape:connector-curvature="0"
   style="fill:#009856;fill-rule:evenodd" />
	<polygon
   points="526.347,504.744 521.938,504.744 525.946,494.531 515.123,494.531 515.123,499.697 515.123,499.697 518.892,499.697 515.016,509.91 525.438,509.91 "
   id="polygon25"
   style="fill:#009856" />
	<path
   clip-rule="evenodd"
   d="m 528.936,509.91 h 4.651 v -15.379 h -4.651 v 15.379 l 0,0 z m 0,-16.744 h 4.651 v -4.633 h -4.651 v 4.633 l 0,0 z"
   id="path27"
   inkscape:connector-curvature="0"
   style="fill:#009856;fill-rule:evenodd" />
	<path
   clip-rule="evenodd"
   d="m 536.293,502.221 c 0,4.453 3.233,8.045 7.242,8.045 4.009,0 7.242,-3.592 7.242,-8.045 0,-4.453 -3.233,-8.045 -7.242,-8.045 -4.009,0 -7.242,3.592 -7.242,8.045 l 0,0 z m 4.649,0 c 0,-1.604 1.149,-2.879 2.593,-2.879 1.444,0 2.592,1.275 2.592,2.879 0,1.604 -1.148,2.881 -2.592,2.881 -1.444,0 -2.593,-1.278 -2.593,-2.881 l 0,0 z"
   id="path29"
   inkscape:connector-curvature="0"
   style="fill:#009856;fill-rule:evenodd" />
	<path
   clip-rule="evenodd"
   d="m 553.557,509.91 h 4.65 v -8.432 c 0,-0.98 0.188,-2.137 1.337,-2.137 1.255,0 1.416,1.156 1.416,2.137 v 8.432 h 4.649 V 498.6 c 0,-3.268 -2.084,-4.424 -4.009,-4.424 -1.389,0 -2.485,0.682 -3.394,1.781 v -1.426 h -4.65 v 15.379 l 10e-4,0 z"
   id="path31"
   inkscape:connector-curvature="0"
   style="fill:#009856;fill-rule:evenodd" />
	<path
   clip-rule="evenodd"
   d="m 580.725,503.318 c -0.882,1.039 -2.753,2.197 -4.329,2.197 -0.668,0 -1.363,-0.236 -1.604,-0.414 l 6.975,-5.494 c -0.534,-1.898 -1.604,-5.432 -6.146,-5.432 -3.18,0 -7.242,2.553 -7.242,8.074 0,6.383 4.597,8.016 6.868,8.016 2.94,0 4.944,-1.336 5.8,-1.898 l -0.322,-5.049 0,0 z m -7.804,-1.007 c -0.053,-0.297 -0.106,-0.564 -0.106,-0.832 0,-1.84 1.068,-2.85 2.352,-2.85 0.374,0 1.229,0.119 1.523,0.533 l -3.769,3.149 0,0 z"
   id="path33"
   inkscape:connector-curvature="0"
   style="fill:#009856;fill-rule:evenodd" />
	<path
   clip-rule="evenodd"
   d="m 591.271,509.91 h 5.426 l 0.694,-2.375 h 6.628 l 0.694,2.375 h 5.426 l -6.468,-21.377 h -5.666 l -6.734,21.377 0,0 z m 11.251,-7.66 h -3.58 l 1.736,-5.938 h 0.054 l 1.79,5.938 0,0 z"
   id="path35"
   inkscape:connector-curvature="0"
   style="fill:#009856;fill-rule:evenodd" />
	<path
   d="m 612.384,509.91 h 4.65 v -8.461 c 0,-0.742 0,-1.871 1.336,-1.871 1.283,0 1.283,1.336 1.283,2.078 v 8.254 h 4.649 v -8.461 c 0,-0.742 0,-1.871 1.336,-1.871 1.283,0 1.283,1.336 1.283,2.078 v 8.254 h 4.65 V 498.6 c 0,-2.229 -1.363,-4.424 -4.303,-4.424 -0.988,0 -2.485,0.414 -3.661,1.781 -1.363,-1.781 -2.593,-1.781 -3.261,-1.781 -1.845,0 -2.993,1.424 -3.261,1.781 h -0.053 v -1.426 h -4.65 v 15.379 l 0.002,0 z"
   id="path37"
   inkscape:connector-curvature="0"
   style="fill:#009856" />
	<path
   clip-rule="evenodd"
   d="m 634.909,502.072 c 0,2.553 0,8.193 6.948,8.193 3.661,0 7.296,-2.107 7.296,-8.223 0,-5.73 -3.607,-7.867 -6.28,-7.867 -1.416,0 -2.913,0.652 -3.26,1.246 h -0.054 v -6.889 h -4.65 v 13.54 l 0,0 z m 4.544,0.149 c 0,-1.604 1.148,-2.879 2.538,-2.879 1.363,0 2.513,1.275 2.513,2.879 0,1.604 -1.149,2.881 -2.513,2.881 -1.389,0 -2.538,-1.278 -2.538,-2.881 l 0,0 z"
   id="path39"
   inkscape:connector-curvature="0"
   style="fill:#009856;fill-rule:evenodd" />
	<path
   clip-rule="evenodd"
   d="m 652.067,509.91 h 4.65 v -15.379 h -4.65 v 15.379 l 0,0 z m 0,-16.744 h 4.65 v -4.633 h -4.65 v 4.633 l 0,0 z"
   id="path41"
   inkscape:connector-curvature="0"
   style="fill:#009856;fill-rule:evenodd" />
	<path
   clip-rule="evenodd"
   d="m 671.771,503.318 c -0.882,1.039 -2.752,2.197 -4.329,2.197 -0.669,0 -1.363,-0.236 -1.604,-0.414 l 6.976,-5.494 c -0.535,-1.898 -1.604,-5.432 -6.147,-5.432 -3.18,0 -7.242,2.553 -7.242,8.074 0,6.383 4.597,8.016 6.868,8.016 2.94,0 4.944,-1.336 5.8,-1.898 l -0.322,-5.049 0,0 z m -7.803,-1.007 c -0.055,-0.297 -0.107,-0.564 -0.107,-0.832 0,-1.84 1.069,-2.85 2.352,-2.85 0.374,0 1.229,0.119 1.523,0.533 l -3.768,3.149 0,0 z"
   id="path43"
   inkscape:connector-curvature="0"
   style="fill:#009856;fill-rule:evenodd" />
	<path
   clip-rule="evenodd"
   d="m 675.201,509.91 h 4.649 v -8.432 c 0,-0.98 0.188,-2.137 1.337,-2.137 1.256,0 1.416,1.156 1.416,2.137 v 8.432 h 4.65 V 498.6 c 0,-3.268 -2.084,-4.424 -4.009,-4.424 -1.39,0 -2.485,0.682 -3.395,1.781 v -1.426 H 675.2 v 15.379 l 10e-4,0 z"
   id="path45"
   inkscape:connector-curvature="0"
   style="fill:#009856;fill-rule:evenodd" />
	<path
   d="m 691.171,494.531 h -0.962 v 4.453 h 0.962 v 7.037 c 0,3.889 2.085,3.889 6.014,3.889 l 0.694,-5.285 c -0.16,0.061 -0.293,0.119 -0.694,0.119 -1.363,0 -1.363,-0.801 -1.363,-1.543 v -4.217 h 1.711 v -4.453 h -1.711 v -4.869 l -4.65,2.969 v 1.9 l -10e-4,0 z"
   id="path47"
   inkscape:connector-curvature="0"
   style="fill:#009856" />
	<path
   clip-rule="evenodd"
   d="m 701.321,498.391 c 0.854,-0.148 1.523,-0.355 2.966,-0.355 2.059,0 2.513,0.475 2.513,2.018 -0.428,-0.236 -1.203,-0.414 -2.031,-0.414 -3.1,0 -4.783,2.582 -4.783,5.225 0,3.473 2.004,5.402 4.302,5.402 1.871,0 2.833,-1.156 2.993,-1.484 h 0.054 v 1.129 h 4.009 v -10.539 c 0,-4.098 -2.004,-4.84 -5.666,-4.84 -1.256,0 -2.538,0.119 -3.795,0.207 l -0.562,3.651 0,0 z m 4.517,4.572 c 0.774,0 1.416,0.713 1.416,1.574 0,0.861 -0.642,1.572 -1.416,1.572 -0.775,0 -1.417,-0.711 -1.417,-1.572 0,-0.861 0.642,-1.574 1.417,-1.574 l 0,0 z"
   id="path49"
   inkscape:connector-curvature="0"
   style="fill:#009856;fill-rule:evenodd" />
	<polygon
   points="714.825,509.91 714.825,509.91 719.475,509.91 719.475,488.533 714.825,488.533 "
   id="polygon51"
   style="fill:#009856" />
	<path
   clip-rule="evenodd"
   d="m 734.527,503.318 c -0.882,1.039 -2.752,2.197 -4.329,2.197 -0.668,0 -1.363,-0.236 -1.604,-0.414 l 6.976,-5.494 c -0.535,-1.898 -1.604,-5.432 -6.146,-5.432 -3.181,0 -7.243,2.553 -7.243,8.074 0,6.383 4.597,8.016 6.868,8.016 2.94,0 4.944,-1.336 5.8,-1.898 l -0.322,-5.049 0,0 z m -7.802,-1.007 c -0.054,-0.297 -0.107,-0.564 -0.107,-0.832 0,-1.84 1.068,-2.85 2.352,-2.85 0.374,0 1.229,0.119 1.523,0.533 l -3.768,3.149 0,0 z"
   id="path53"
   inkscape:connector-curvature="0"
   style="fill:#009856;fill-rule:evenodd" />
	<path
   clip-rule="evenodd"
   d="m 516.594,479.977 h 5.425 l 0.694,-2.375 h 6.628 l 0.694,2.375 h 5.425 L 528.993,458.6 h -5.666 l -6.733,21.377 0,0 z m 11.25,-7.661 h -3.581 L 526,466.378 h 0.053 l 1.791,5.938 0,0 z"
   id="path55"
   inkscape:connector-curvature="0"
   style="fill:#009856;fill-rule:evenodd" />
	<path
   clip-rule="evenodd"
   d="m 536.228,482.352 c 1.737,1.691 3.688,2.85 6.04,2.85 4.623,0 6.573,-3.354 6.573,-6.354 0,-2.137 -0.747,-3.117 -1.148,-3.621 0.642,-0.654 1.31,-2.139 1.31,-3.801 0,-2.375 -0.936,-4.127 -1.337,-4.514 l 1.391,-2.314 h -2.833 v -0.061 c 0.24,0.061 -2.485,-0.297 -3.795,-0.297 -2.512,0 -5.906,1.781 -5.906,7.186 0,2.969 1.791,6.799 6.254,6.799 0.428,0 0.962,-0.029 1.416,-0.178 v 0.713 c 0,1.039 -0.774,1.691 -1.791,1.691 -1.389,0 -2.966,-0.742 -3.874,-1.93 l -2.3,3.831 0,0 z m 4.73,-11.104 c 0,-1.068 0.774,-1.959 1.711,-1.959 0.881,0 1.683,0.891 1.683,1.959 0,1.01 -0.802,1.93 -1.683,1.93 -0.937,0 -1.711,-0.92 -1.711,-1.93 l 0,0 z"
   id="path57"
   inkscape:connector-curvature="0"
   style="fill:#009856;fill-rule:evenodd" />
	<path
   clip-rule="evenodd"
   d="m 562.874,473.385 c -0.882,1.039 -2.752,2.197 -4.329,2.197 -0.668,0 -1.362,-0.238 -1.603,-0.416 l 6.974,-5.492 c -0.534,-1.9 -1.603,-5.434 -6.146,-5.434 -3.181,0 -7.242,2.555 -7.242,8.076 0,6.383 4.597,8.016 6.867,8.016 2.94,0 4.944,-1.336 5.8,-1.9 l -0.321,-5.047 0,0 z m -7.803,-1.01 c -0.054,-0.297 -0.107,-0.563 -0.107,-0.83 0,-1.842 1.069,-2.85 2.353,-2.85 0.374,0 1.229,0.117 1.522,0.533 l -3.768,3.147 0,0 z"
   id="path59"
   inkscape:connector-curvature="0"
   style="fill:#009856;fill-rule:evenodd" />
	<path
   clip-rule="evenodd"
   d="m 565.497,479.977 h 4.649 v -8.432 c 0,-0.98 0.187,-2.139 1.336,-2.139 1.256,0 1.416,1.158 1.416,2.139 v 8.432 h 4.65 v -11.313 c 0,-3.266 -2.085,-4.424 -4.009,-4.424 -1.39,0 -2.485,0.684 -3.394,1.781 v -1.424 h -4.649 v 15.38 l 10e-4,0 z"
   id="path61"
   inkscape:connector-curvature="0"
   style="fill:#009856;fill-rule:evenodd" />
	<polygon
   points="590.679,474.811 586.27,474.811 590.278,464.598 579.455,464.598 579.455,469.764 579.455,469.764 583.223,469.764 579.349,479.977 589.771,479.977 "
   id="polygon63"
   style="fill:#009856" />
	<path
   clip-rule="evenodd"
   d="m 592.46,479.977 h 4.649 v -15.379 h -4.649 v 15.379 l 0,0 z m 0,-16.745 h 4.649 V 458.6 h -4.649 v 4.632 l 0,0 z"
   id="path65"
   inkscape:connector-curvature="0"
   style="fill:#009856;fill-rule:evenodd" />
	<path
   clip-rule="evenodd"
   d="m 600.263,468.457 c 0.855,-0.148 1.523,-0.355 2.967,-0.355 2.058,0 2.512,0.475 2.512,2.018 -0.428,-0.236 -1.203,-0.416 -2.031,-0.416 -3.1,0 -4.783,2.584 -4.783,5.227 0,3.473 2.004,5.402 4.303,5.402 1.87,0 2.832,-1.158 2.992,-1.484 h 0.054 v 1.129 h 4.009 v -10.539 c 0,-4.098 -2.004,-4.84 -5.665,-4.84 -1.257,0 -2.539,0.119 -3.795,0.207 l -0.563,3.651 0,0 z m 4.516,4.572 c 0.774,0 1.416,0.713 1.416,1.574 0,0.859 -0.642,1.572 -1.416,1.572 -0.775,0 -1.417,-0.713 -1.417,-1.572 0,-0.861 0.642,-1.574 1.417,-1.574 l 0,0 z"
   id="path67"
   inkscape:connector-curvature="0"
   style="fill:#009856;fill-rule:evenodd" />
	<path
   clip-rule="evenodd"
   d="m 620.762,479.977 h 5.024 v -8.818 h 0.053 l 3.395,8.818 h 5.665 l -3.688,-9.264 c 1.684,-1.246 2.619,-2.969 2.619,-5.254 0,-4.543 -2.646,-6.859 -6.468,-6.859 h -6.601 v 21.377 l 10e-4,0 z m 5.024,-16.627 c 1.87,0 3.02,0.713 3.02,2.643 0,1.93 -1.149,2.643 -3.02,2.643 v -5.286 l 0,0 z"
   id="path69"
   inkscape:connector-curvature="0"
   style="fill:#009856;fill-rule:evenodd" />
	<path
   clip-rule="evenodd"
   d="m 647.8,473.385 c -0.882,1.039 -2.753,2.197 -4.329,2.197 -0.668,0 -1.363,-0.238 -1.604,-0.416 l 6.975,-5.492 c -0.534,-1.9 -1.604,-5.434 -6.146,-5.434 -3.18,0 -7.242,2.555 -7.242,8.076 0,6.383 4.597,8.016 6.868,8.016 2.939,0 4.944,-1.336 5.799,-1.9 l -0.321,-5.047 0,0 z m -7.804,-1.01 c -0.053,-0.297 -0.106,-0.563 -0.106,-0.83 0,-1.842 1.069,-2.85 2.352,-2.85 0.374,0 1.229,0.117 1.523,0.533 l -3.769,3.147 0,0 z"
   id="path71"
   inkscape:connector-curvature="0"
   style="fill:#009856;fill-rule:evenodd" />
	<path
   clip-rule="evenodd"
   d="m 649.647,482.352 c 1.736,1.691 3.688,2.85 6.039,2.85 4.623,0 6.573,-3.354 6.573,-6.354 0,-2.137 -0.748,-3.117 -1.148,-3.621 0.642,-0.654 1.31,-2.139 1.31,-3.801 0,-2.375 -0.936,-4.127 -1.336,-4.514 l 1.389,-2.314 h -2.832 v -0.061 c 0.24,0.061 -2.485,-0.297 -3.795,-0.297 -2.512,0 -5.905,1.781 -5.905,7.186 0,2.969 1.79,6.799 6.253,6.799 0.428,0 0.962,-0.029 1.416,-0.178 v 0.713 c 0,1.039 -0.775,1.691 -1.79,1.691 -1.39,0 -2.967,-0.742 -3.875,-1.93 l -2.299,3.831 0,0 z m 4.73,-11.104 c 0,-1.068 0.774,-1.959 1.71,-1.959 0.882,0 1.684,0.891 1.684,1.959 0,1.01 -0.802,1.93 -1.684,1.93 -0.936,0 -1.71,-0.92 -1.71,-1.93 l 0,0 z"
   id="path73"
   inkscape:connector-curvature="0"
   style="fill:#009856;fill-rule:evenodd" />
	<path
   clip-rule="evenodd"
   d="m 664.669,479.977 h 4.649 v -15.379 h -4.649 v 15.379 l 0,0 z m 0,-16.745 h 4.649 V 458.6 h -4.649 v 4.632 l 0,0 z"
   id="path75"
   inkscape:connector-curvature="0"
   style="fill:#009856;fill-rule:evenodd" />
	<path
   clip-rule="evenodd"
   d="m 671.216,472.287 c 0,4.453 3.234,8.045 7.242,8.045 4.009,0 7.242,-3.592 7.242,-8.045 0,-4.453 -3.233,-8.047 -7.242,-8.047 -4.008,0 -7.242,3.594 -7.242,8.047 l 0,0 z m 4.649,0 c 0,-1.604 1.149,-2.881 2.593,-2.881 1.444,0 2.593,1.277 2.593,2.881 0,1.604 -1.149,2.879 -2.593,2.879 -1.444,0 -2.593,-1.275 -2.593,-2.879 l 0,0 z"
   id="path77"
   inkscape:connector-curvature="0"
   style="fill:#009856;fill-rule:evenodd" />
	<path
   clip-rule="evenodd"
   d="m 687.672,479.977 h 4.649 v -8.432 c 0,-0.98 0.188,-2.139 1.336,-2.139 1.256,0 1.416,1.158 1.416,2.139 v 8.432 h 4.65 v -11.313 c 0,-3.266 -2.085,-4.424 -4.009,-4.424 -1.39,0 -2.484,0.684 -3.394,1.781 v -1.424 h -4.649 v 15.38 l 10e-4,0 z"
   id="path79"
   inkscape:connector-curvature="0"
   style="fill:#009856;fill-rule:evenodd" />
	<path
   clip-rule="evenodd"
   d="m 702.939,468.457 c 0.855,-0.148 1.523,-0.355 2.967,-0.355 2.057,0 2.512,0.475 2.512,2.018 -0.428,-0.236 -1.203,-0.416 -2.031,-0.416 -3.1,0 -4.783,2.584 -4.783,5.227 0,3.473 2.004,5.402 4.303,5.402 1.87,0 2.832,-1.158 2.992,-1.484 h 0.054 v 1.129 h 4.009 v -10.539 c 0,-4.098 -2.004,-4.84 -5.666,-4.84 -1.256,0 -2.538,0.119 -3.794,0.207 l -0.563,3.651 0,0 z m 4.517,4.572 c 0.774,0 1.416,0.713 1.416,1.574 0,0.859 -0.642,1.572 -1.416,1.572 -0.775,0 -1.417,-0.713 -1.417,-1.572 0,-0.861 0.642,-1.574 1.417,-1.574 l 0,0 z"
   id="path81"
   inkscape:connector-curvature="0"
   style="fill:#009856;fill-rule:evenodd" />
	<polygon
   points="715.635,479.977 715.635,479.977 720.284,479.977 720.284,458.6 715.635,458.6 "
   id="polygon83"
   style="fill:#009856" />
	<path
   clip-rule="evenodd"
   d="m 734.528,473.385 c -0.882,1.039 -2.753,2.197 -4.329,2.197 -0.668,0 -1.363,-0.238 -1.604,-0.416 l 6.975,-5.492 c -0.534,-1.9 -1.604,-5.434 -6.146,-5.434 -3.18,0 -7.242,2.555 -7.242,8.076 0,6.383 4.597,8.016 6.868,8.016 2.939,0 4.943,-1.336 5.799,-1.9 l -0.321,-5.047 0,0 z m -7.803,-1.01 c -0.053,-0.297 -0.106,-0.563 -0.106,-0.83 0,-1.842 1.068,-2.85 2.352,-2.85 0.374,0 1.229,0.117 1.523,0.533 l -3.769,3.147 0,0 z"
   id="path85"
   inkscape:connector-curvature="0"
   style="fill:#009856;fill-rule:evenodd" />
	<path
   clip-rule="evenodd"
   d="m 650.69,373.508 c 7.428,-0.967 13.231,-2.321 25.767,-2.321 17.873,0 21.819,3.095 21.819,13.154 -3.714,-1.547 -10.446,-2.708 -17.642,-2.708 -26.927,0 -41.551,16.829 -41.551,34.045 0,22.633 17.41,35.207 37.373,35.207 16.248,0 24.604,-7.545 25.998,-9.672 h 0.464 v 7.35 h 34.819 v -68.67 c 0,-26.695 -17.409,-31.531 -49.211,-31.531 -10.91,0 -22.052,0.773 -32.962,1.354 l -4.874,23.792 0,0 z m 39.23,29.791 c 6.731,0 12.303,4.643 12.303,10.252 0,5.609 -5.571,10.252 -12.303,10.252 -6.732,0 -12.303,-4.643 -12.303,-10.252 0,-5.609 5.571,-10.252 12.303,-10.252 l 0,0 z"
   id="path87"
   inkscape:connector-curvature="0"
   style="fill:#005da4;fill-rule:evenodd" />
	<polygon
   stroke-miterlimit="3.8637"
   points="701.008,320.1 538.102,320.1 619.681,447.773 701.008,320.1 "
   id="polygon89"
   style="fill:#6dcff6;stroke:#6dcff6;stroke-width:2.83739996;stroke-miterlimit:3.86369991" />
	<polygon
   stroke-miterlimit="3.8637"
   points="624.759,345.289 629.234,325.731 605.288,324.472 605.288,345.27 598.757,344.729 597.799,364.167 637.643,374.727 637.643,374.727 656.523,342.3 636.127,329.271 629.421,346.785 "
   id="polygon91"
   style="stroke:#000000;stroke-width:0.50050002;stroke-miterlimit:3.86369991" />
	<polygon
   stroke-miterlimit="3.8637"
   points="649.351,363.603 649.351,363.603 642.034,376.111 635.898,374.224 643.687,361.243 "
   id="polygon93"
   style="fill:#ce7b2d;stroke:#ce7b2d;stroke-width:0;stroke-linejoin:round;stroke-miterlimit:3.86369991" />
	<polygon
   stroke-miterlimit="3.8637"
   points="648.039,377.777 648.039,377.777 566.946,354.361 585.222,382.181 643.075,384.995 "
   id="polygon95"
   style="fill:#a7a9ac;stroke:#a7a9ac;stroke-width:0;stroke-linejoin:round;stroke-miterlimit:3.86369991" />
	<polygon
   stroke-miterlimit="3.8637"
   points="637.344,383.191 637.344,383.191 580.594,375.037 595.806,398.768 622.239,394.284 "
   id="polygon97"
   style="fill:#bfd730;stroke:#bfd730;stroke-width:0;stroke-linejoin:round;stroke-miterlimit:3.86369991" />
	<polygon
   points="619.51,328.407 619.51,328.407 613.765,327.891 613.507,334.152 618.688,336.106 "
   id="polygon99"
   style="fill:#ffffff" />
	<polygon
   points="618.033,339.513 618.033,339.513 613.658,339.278 613.707,345.156 617.225,345.672 "
   id="polygon101"
   style="fill:#ffffff" />
	<polygon
   points="646.181,339.416 646.181,339.416 640.855,337.188 637.079,345.677 640.855,347.742 "
   id="polygon103"
   style="fill:#ffffff" />
	<path
   stroke-miterlimit="3.8637"
   d="m 646.628,355.241 c 0,-2.567 2.854,-4.648 6.374,-4.648 3.521,0 6.375,2.081 6.375,4.648 0,2.567 -2.854,4.648 -6.375,4.648 -3.52,0 -6.374,-2.081 -6.374,-4.648 l 0,0 z"
   id="path105"
   inkscape:connector-curvature="0"
   style="fill:#009856;stroke:#009856;stroke-width:0;stroke-linejoin:round;stroke-miterlimit:3.86369991" />
	<path
   stroke-miterlimit="3.8637"
   d="m 638.729,349.936 c 0,-4.01 3.211,-7.26 7.171,-7.26 3.961,0 7.171,3.25 7.171,7.26 0,4.01 -3.21,7.26 -7.171,7.26 -3.961,0 -7.171,-3.25 -7.171,-7.26 l 0,0 z"
   id="path107"
   inkscape:connector-curvature="0"
   style="fill:#009856;stroke:#009856;stroke-width:0;stroke-linejoin:round;stroke-miterlimit:3.86369991" />
	<path
   stroke-miterlimit="3.8637"
   d="m 635.082,359.056 c 0,-3.656 3.396,-6.621 7.586,-6.621 4.19,0 7.586,2.964 7.586,6.621 0,3.657 -3.396,6.621 -7.586,6.621 -4.189,-0.001 -7.586,-2.965 -7.586,-6.621 l 0,0 z"
   id="path109"
   inkscape:connector-curvature="0"
   style="fill:#009856;stroke:#009856;stroke-width:0;stroke-linejoin:round;stroke-miterlimit:3.86369991" />
	<path
   stroke-miterlimit="3.8637"
   d="m 646.993,361.89 c 0,-3.614 2.663,-6.544 5.949,-6.544 3.285,0 5.948,2.93 5.948,6.544 0,3.615 -2.663,6.545 -5.948,6.545 -3.286,0 -5.949,-2.93 -5.949,-6.545 l 0,0 z"
   id="path111"
   inkscape:connector-curvature="0"
   style="fill:#009856;stroke:#009856;stroke-width:0;stroke-linejoin:round;stroke-miterlimit:3.86369991" />
	<polyline
   stroke-miterlimit="3.8637"
   points="   595.998,350.308 582.587,329.026 586.964,350.308  "
   id="polyline113"
   style="fill:none;stroke:#000000;stroke-width:1.28970003;stroke-linejoin:round;stroke-miterlimit:3.86369991" />
	<polygon
   stroke-miterlimit="3.8637"
   points="592.814,336.187 579.508,339.753 584.519,333.821 592.814,336.187 "
   id="polygon115"
   style="fill:none;stroke:#000000;stroke-width:1.35440004;stroke-linejoin:round;stroke-miterlimit:3.86369991" />
	<path
   stroke-miterlimit="3.8637"
   d="m 589.744,332.049 -10.779,2.888 4.068,-4.556 6.711,1.668 0,0 z m 3.44,8.335 -10.778,2.888 4.037,-4.869 6.741,1.981 0,0 z"
   id="path117"
   inkscape:connector-curvature="0"
   style="fill:none;stroke:#000000;stroke-width:1.08819997;stroke-linejoin:round;stroke-miterlimit:3.86369991" />
	<polygon
   stroke-miterlimit="3.8637"
   points="629.831,356.551 629.831,356.551 624.957,362.286 629.831,365.439 633.559,360.565 "
   id="polygon119"
   style="fill:#bfd730;stroke:#bfd730;stroke-width:0;stroke-linejoin:round;stroke-miterlimit:3.86369991" />
	<path
   stroke-miterlimit="3.8637"
   d="m 614.06,349.908 c 0,-1.577 1.277,-2.854 2.854,-2.854 1.576,0 2.854,1.278 2.854,2.854 0,1.576 -1.278,2.855 -2.854,2.855 -1.577,0 -2.854,-1.279 -2.854,-2.855 l 0,0 z"
   id="path121"
   inkscape:connector-curvature="0"
   style="fill:#0089cf;stroke:#0089cf;stroke-width:0;stroke-linejoin:round;stroke-miterlimit:3.86369991" />
	<polygon
   points="625.268,375.173 618.388,365.404 616.702,367.584 616.348,373.473 613.313,366.995 615.835,362.572 613.889,353.936 613.889,353.936 620.71,353.971 627.018,359.705 621.283,357.698 "
   id="polygon123"
   style="fill:#0089cf" />
	<polygon
   stroke-miterlimit="3.8637"
   points="627.493,376.602 627.493,376.602 627.205,378.037 621.728,376.891 622.074,375.332 "
   id="polygon125"
   style="fill:#ffffff;stroke:#ffffff;stroke-width:0.37799999;stroke-miterlimit:3.86369991" />
	<polygon
   stroke-miterlimit="3.8637"
   points="615.683,373.724 615.683,373.724 615.345,375.505 607.798,373.897 608.202,371.934 "
   id="polygon127"
   style="fill:#ffffff;stroke:#ffffff;stroke-width:0.37799999;stroke-miterlimit:3.86369991" />
	<polygon
   stroke-miterlimit="3.8637"
   points="601.868,370.499 601.868,370.499 601.464,372.453 593.868,370.845 594.388,368.651 "
   id="polygon129"
   style="fill:#ffffff;stroke:#ffffff;stroke-width:0.37799999;stroke-miterlimit:3.86369991" />
	<path
   stroke-miterlimit="3.8637"
   d="m 664.047,369.849 -8.332,13.273 c -6.638,1.566 -8.723,5.728 -10.021,7.294 -1.352,1.631 -5.091,9.27 -10.028,13.663 -6.925,6.16 -12.47,8.332 -21.605,9.898 -3.462,0.592 -5.472,0.738 -8.981,0.648 L 592.065,393.02 c 7.026,0.779 11.059,1.168 17.704,0.389 6.745,-0.791 13.192,-2.44 16.674,-5.088 4.682,-3.562 7.91,-9.912 14.822,-13.654 7.986,-4.322 14.06,-5.467 22.782,-4.818 l 0,0 z"
   id="path131"
   inkscape:connector-curvature="0"
   style="fill:#0089cf;stroke:#0089cf;stroke-width:0.2142;stroke-miterlimit:3.86369991" />
	<path
   stroke-miterlimit="3.8637"
   d="m 593.975,347.389 c -4.106,-4.107 -13.83,-3.488 -17.071,1.757 -2.28,3.689 -1.983,8.839 0.494,11.604 2.351,2.623 5.498,4.398 8.913,3.044 1.671,-0.662 3.511,-2.959 3.522,-2.971 0.019,-0.019 2.979,5.432 7.188,5.069 5.74,-0.495 5.104,-6.906 5.564,-7.023 3.252,-0.824 7.736,-3.345 8.239,-7.72 0.515,-4.476 -2.224,-8.434 -6.606,-9.476 -4.449,-1.058 -8.806,1.372 -10.243,5.716 l 0,0 z"
   id="path133"
   inkscape:connector-curvature="0"
   style="fill:#0089cf;stroke:#0089cf;stroke-width:0.2142;stroke-miterlimit:3.86369991" />
	<polygon
   points="535.498,286 535.498,286 703.829,286 703.829,314.074 535.498,314.074 "
   id="polygon135"
   style="fill:#009856" />
	<path
   clip-rule="evenodd"
   d="m 547.867,308.736 c -0.054,-0.48 -0.055,-2.974 -0.055,-3.431 v -0.617 c 6.473,-0.913 9.709,-4.136 9.708,-7.11 -0.002,-2.584 -2.356,-3.935 -5.031,-4.508 -2.221,-0.458 -5.484,-0.574 -10.594,-0.576 0,0.343 0.082,5.078 0.082,5.604 l 10e-4,2.516 c 0,1.624 -0.051,7.137 -0.077,8.12 l 5.966,0.002 0,0 z m -0.058,-13.037 c 2.862,0.184 3.639,1.236 3.639,2.518 10e-4,1.898 -2.085,3.041 -3.637,3.246 l -0.002,-5.764 0,0 z"
   id="path137"
   inkscape:connector-curvature="0"
   style="fill:#ffffff;fill-rule:evenodd" />
	<path
   d="m 567.273,299.366 c -10e-4,-2.745 0.077,-6.451 0.104,-6.862 l -6.206,-0.002 c 0,0.549 0.082,6.427 0.083,6.816 l 10e-4,2.47 c 0,0.595 -0.024,5.947 -0.078,6.954 l 6.207,0.002 c -0.027,-0.526 -0.109,-4.621 -0.11,-6.908 l -10e-4,-2.47 0,0 z"
   id="path139"
   inkscape:connector-curvature="0"
   style="fill:#ffffff" />
	<path
   d="m 584.971,305.046 c -1.258,0.091 -5.297,0.043 -5.993,0.043 l -10e-4,-2.722 c 0.589,0 4.146,0.093 4.869,0.093 l -0.081,-3.66 c -1.178,0.091 -4.254,0.204 -4.789,0.204 l -10e-4,-3.019 c 0.481,0 4.682,-0.112 5.671,-0.112 l -0.108,-3.774 c -0.99,0.068 -9.979,0.408 -11.477,0.407 0.027,0.663 0.083,6.176 0.083,6.542 l 10e-4,3.064 c 0,0.526 0.003,5.421 -0.077,6.633 1.391,10e-4 11.049,0.233 12.012,0.234 l -0.109,-3.933 0,0 z"
   id="path141"
   inkscape:connector-curvature="0"
   style="fill:#ffffff" />
	<path
   d="m 592.564,309.463 c 0.481,-1.075 2.405,-6.976 2.859,-8.165 0.428,0.687 3.238,4.576 5.3,7.23 h 0.268 c 2.006,-2.401 5.428,-6.905 5.748,-7.317 0.295,0.618 2.839,6.428 3.695,8.259 l 5.403,-2.057 c -0.723,-1.258 -6.104,-11.645 -7.951,-15.031 l -0.268,0 c -1.417,1.967 -5.187,7.317 -6.229,8.667 -0.83,-1.167 -4.791,-6.772 -6.425,-9.038 h -0.267 c -1.551,2.904 -6.95,14.865 -7.404,15.78 l 5.271,1.672 0,0 z"
   id="path143"
   inkscape:connector-curvature="0"
   style="fill:#ffffff" />
	<path
   clip-rule="evenodd"
   d="m 627.759,309.134 c 8.962,0.004 11.661,-5.462 11.661,-8.916 -0.002,-5.032 -3.99,-8.053 -10.356,-8.056 -7.892,-0.003 -11.636,4.73 -11.634,9.145 0.001,3.66 3.186,7.801 10.329,7.827 l 0,0 z m 0.293,-3.545 c -2.193,-10e-4 -4.094,-1.557 -4.095,-4.622 -10e-4,-2.791 1.71,-5.26 4.76,-5.259 2.568,10e-4 4.174,1.717 4.148,4.667 -0.025,3.409 -1.924,5.215 -4.813,5.214 l 0,0 z"
   id="path145"
   inkscape:connector-curvature="0"
   style="fill:#ffffff;fill-rule:evenodd" />
	<path
   d="m 648.119,308.937 c -0.027,-0.755 -0.057,-7.366 -0.057,-8.303 0.401,0.274 10.061,6.82 13.271,8.606 l 0.269,-0.114 c 0.079,-1.487 0.265,-4.735 0.479,-8.051 0.238,-3.339 0.479,-6.748 0.638,-8.532 l -5.457,-0.117 c -0.026,0.984 0.056,7.114 0.057,8.372 -0.937,-0.595 -9.526,-6.157 -13.326,-8.537 l -0.268,0.137 c -0.266,3.042 -0.903,14.753 -1.063,16.377 l 5.457,0.162 0,0 z"
   id="path147"
   inkscape:connector-curvature="0"
   style="fill:#ffffff" />
	<path
   d="m 676.741,308.788 c -0.054,-0.458 -0.081,-3.614 -0.082,-5.97 l -0.003,-6.359 c 0.428,0 5.377,0.117 5.886,0.14 l -0.002,-4.003 c -1.311,0.091 -7.143,0.18 -7.65,0.18 l -2.328,-0.001 c -0.294,0 -6.634,-0.094 -7.838,-0.186 l 10e-4,4.003 c 0.829,-0.022 4.629,-0.136 5.912,-0.135 l 0.002,5.993 c 10e-4,2.493 -0.023,5.741 -0.077,6.336 l 6.179,0.002 0,0 z"
   id="path149"
   inkscape:connector-curvature="0"
   style="fill:#ffffff" />
	<path
   d="m 697.317,305.09 c -1.257,0.091 -5.297,0.043 -5.992,0.043 l -0.002,-2.722 c 0.589,0 4.147,0.093 4.869,0.094 l -0.081,-3.66 c -1.178,0.091 -4.254,0.204 -4.789,0.204 l -10e-4,-3.02 c 0.481,0 4.682,-0.112 5.672,-0.112 l -0.109,-3.774 c -0.99,0.068 -9.979,0.407 -11.476,0.407 0.026,0.664 0.082,6.176 0.082,6.542 l 0.002,3.065 c 0,0.526 0.002,5.421 -0.078,6.633 1.392,0 11.049,0.233 12.012,0.234 l -0.109,-3.934 0,0 z"
   id="path151"
   inkscape:connector-curvature="0"
   style="fill:#ffffff" />
	<path
   d="m 397.129,448.295 h 41.175 l -0.187,-42.965 c 0.588,-11.575 9.914,-25.007 31.64,-20.21 v -34.219 c -13.731,-2.686 -22.031,-1.636 -30.553,6.716 l -0.901,1.535 v -13.004 h -41.175 v 102.147 l 0.001,0 z"
   id="path153"
   inkscape:connector-curvature="0"
   style="fill:#005da4" />
	<path
   clip-rule="evenodd"
   d="m 241,448.406 h 48.414 l 6.201,-15.775 h 59.146 l 6.201,15.775 h 48.415 L 351.661,306.424 H 301.1 l -60.1,141.982 0,0 z M 341.406,397.529 H 309.448 L 324.95,358.09 h 0.477 l 15.979,39.439 0,0 z"
   id="path155"
   inkscape:connector-curvature="0"
   style="fill:#005da4;fill-rule:evenodd" />
	<path
   clip-rule="evenodd"
   d="m 555.482,396.479 c 0,-10.648 -9.473,-19.128 -21.59,-19.128 -11.896,0 -21.37,8.479 -21.37,19.128 0,10.649 9.474,19.128 21.37,19.128 12.118,0 21.59,-8.478 21.59,-19.128 l 0,0 z m -88.875,83.876 V 345.692 l 43.712,-0.065 -0.029,10.326 h 0.44 c 3.966,-5.521 13.219,-13.015 29.741,-13.015 27.979,0 51.992,21.1 51.992,50.088 0,35.298 -22.691,56.792 -55.958,56.792 -14.319,0 -23.132,-5.521 -26.216,-8.281 l -0.043,38.855 -43.639,-0.037 0,0 z"
   id="path157"
   inkscape:connector-curvature="0"
   style="fill:#005da4;fill-rule:evenodd" />
</g>
</svg>